<svg width="48" height="48" viewBox="0 0 48 48" fill="none" xmlns="http://www.w3.org/2000/svg">
    <g clip-path="url(#clip0_1_9107)">
        <rect x="4" y="4" width="40" height="40" rx="20" fill="#FEDDBD" />
        <mask id="mask0_1_9107" style="mask-type:alpha" maskUnits="userSpaceOnUse" x="12" y="12"
            width="24" height="24">
            <rect x="12" y="12" width="24" height="24" fill="#D9D9D9" />
        </mask>
        <g mask="url(#mask0_1_9107)">
            <path
                d="M17.9999 22.95L16.9999 23.5C16.7666 23.6333 16.5166 23.6667 16.2499 23.6C15.9833 23.5333 15.7833 23.3833 15.6499 23.15L13.6499 19.65C13.5166 19.4167 13.4833 19.1667 13.5499 18.9C13.6166 18.6333 13.7666 18.4333 13.9999 18.3L19.7499 15H21.4999C21.6499 15 21.7708 15.0458 21.8624 15.1375C21.9541 15.2292 21.9999 15.35 21.9999 15.5V16C21.9999 16.55 22.1958 17.0208 22.5874 17.4125C22.9791 17.8042 23.4499 18 23.9999 18C24.5499 18 25.0208 17.8042 25.4124 17.4125C25.8041 17.0208 25.9999 16.55 25.9999 16V15.5C25.9999 15.35 26.0458 15.2292 26.1374 15.1375C26.2291 15.0458 26.3499 15 26.4999 15H28.2499L33.9999 18.3C34.2333 18.4333 34.3833 18.6333 34.4499 18.9C34.5166 19.1667 34.4833 19.4167 34.3499 19.65L32.3499 23.15C32.2166 23.3833 32.0208 23.5292 31.7624 23.5875C31.5041 23.6458 31.2499 23.6083 30.9999 23.475L29.9999 22.975V32C29.9999 32.2833 29.9041 32.5208 29.7124 32.7125C29.5208 32.9042 29.2833 33 28.9999 33H18.9999C18.7166 33 18.4791 32.9042 18.2874 32.7125C18.0958 32.5208 17.9999 32.2833 17.9999 32V22.95ZM19.9999 19.6V31H27.9999V19.6L31.0999 21.3L32.1499 19.55L27.8499 17.05C27.5999 17.9 27.1291 18.6042 26.4374 19.1625C25.7458 19.7208 24.9333 20 23.9999 20C23.0666 20 22.2541 19.7208 21.5624 19.1625C20.8708 18.6042 20.3999 17.9 20.1499 17.05L15.8499 19.55L16.8999 21.3L19.9999 19.6Z"
                fill="#281805" />
        </g>
    </g>
    <defs>
        <clipPath id="clip0_1_9107">
            <rect x="4" y="4" width="40" height="40" rx="20" fill="white" />
        </clipPath>
    </defs>
</svg>
